<?xml version="1.0" encoding="UTF-8" standalone="no"?>
<!-- Created with Inkscape (http://www.inkscape.org/) -->

<svg
   xmlns:dc="http://purl.org/dc/elements/1.1/"
   xmlns:cc="http://creativecommons.org/ns#"
   xmlns:rdf="http://www.w3.org/1999/02/22-rdf-syntax-ns#"
   xmlns:svg="http://www.w3.org/2000/svg"
   xmlns="http://www.w3.org/2000/svg"
   xmlns:sodipodi="http://sodipodi.sourceforge.net/DTD/sodipodi-0.dtd"
   xmlns:inkscape="http://www.inkscape.org/namespaces/inkscape"
   width="108.61922mm"
   height="18.091185mm"
   viewBox="0 0 108.61922 18.091185"
   version="1.1"
   id="svg3861"
   inkscape:version="0.92.4 (5da689c313, 2019-01-14)"
   sodipodi:docname="logoUnisociesc.svg">
  <defs
     id="defs3855">
    <clipPath
       clipPathUnits="userSpaceOnUse"
       id="clipPath40">
      <path
         d="m 668.266,66.388 h 307.897 v 51.283 H 668.266 Z"
         id="path38"
         inkscape:connector-curvature="0" />
    </clipPath>
  </defs>
  <sodipodi:namedview
     id="base"
     pagecolor="#ffffff"
     bordercolor="#666666"
     borderopacity="1.0"
     inkscape:pageopacity="0.0"
     inkscape:pageshadow="2"
     inkscape:zoom="0.35"
     inkscape:cx="-543.30675"
     inkscape:cy="122.75949"
     inkscape:document-units="mm"
     inkscape:current-layer="layer1"
     showgrid="false"
     fit-margin-top="0"
     fit-margin-left="0"
     fit-margin-right="0"
     fit-margin-bottom="0"
     inkscape:window-width="1920"
     inkscape:window-height="1020"
     inkscape:window-x="0"
     inkscape:window-y="0"
     inkscape:window-maximized="1" />
  <metadata
     id="metadata3858">
    <rdf:RDF>
      <cc:Work
         rdf:about="">
        <dc:format>image/svg+xml</dc:format>
        <dc:type
           rdf:resource="http://purl.org/dc/dcmitype/StillImage" />
        <dc:title></dc:title>
      </cc:Work>
    </rdf:RDF>
  </metadata>
  <g
     inkscape:label="Camada 1"
     inkscape:groupmode="layer"
     id="layer1"
     transform="translate(-82.517769,-163.22226)">
    <g
       transform="matrix(0.35277777,0,0,-0.35277777,-153.23162,204.73366)"
       id="g36"
       clip-path="url(#clipPath40)">
      <g
         id="g42"
         transform="translate(746.0123,94.5541)">
        <path
           d="m 0,0 c -0.012,2.278 -1.558,4.208 -3.654,4.818 -0.448,0.13 -0.92,0.204 -1.409,0.204 h -1.154 c -0.601,0 -1.093,-0.491 -1.093,-1.09 v -26.984 c 0.012,-2.278 1.558,-4.208 3.654,-4.818 0.448,-0.131 0.92,-0.204 1.409,-0.204 h 1.153 c 0.602,0 1.094,0.49 1.094,1.09 z"
           style="fill:#000e6e;fill-opacity:1;fill-rule:nonzero;stroke:none"
           id="path44"
           inkscape:connector-curvature="0" />
      </g>
      <g
         id="g46"
         transform="translate(855.2307,94.5541)">
        <path
           d="m 0,0 c -0.012,2.278 -1.558,4.208 -3.654,4.818 -0.449,0.13 -0.92,0.204 -1.409,0.204 h -1.154 c -0.601,0 -1.093,-0.491 -1.093,-1.09 v -26.984 c 0.012,-2.278 1.558,-4.208 3.654,-4.818 0.448,-0.131 0.92,-0.204 1.409,-0.204 h 1.153 c 0.602,0 1.094,0.49 1.094,1.09 z"
           style="fill:#000e6e;fill-opacity:1;fill-rule:nonzero;stroke:none"
           id="path48"
           inkscape:connector-curvature="0" />
      </g>
      <g
         id="g50"
         transform="translate(668.2659,79.5111)">
        <path
           d="m 0,0 c 0,-8.243 4.446,-13.009 14.248,-13.03 v -0.001 h 0.065 v 0.001 c 9.802,0.021 14.248,4.787 14.248,13.03 v 15.358 c 0,2.585 -2.11,4.699 -4.689,4.699 h -1.068 c -0.557,0 -1.012,-0.457 -1.012,-1.015 L 21.798,0 c 0,-4.224 -1.374,-6.574 -7.517,-6.583 C 8.137,-6.574 6.763,-4.224 6.763,0 L 6.768,15.383 C 6.757,17.503 5.322,19.285 3.385,19.867 2.53,20.124 1.012,20.057 1.012,20.057 0.456,20.057 0,19.6 0,19.042 Z"
           style="fill:#000e6e;fill-opacity:1;fill-rule:nonzero;stroke:none"
           id="path52"
           inkscape:connector-curvature="0" />
      </g>
      <g
         id="g54"
         transform="translate(732.0452,87.5119)">
        <path
           d="m 0,0 c 0,8.243 -4.446,13.008 -14.248,13.03 v 0.001 h -0.065 V 13.03 C -24.115,13.008 -28.561,8.243 -28.561,0 v -16.326 c 0,-2.584 2.11,-4.698 4.689,-4.698 h 1.068 c 0.557,0 1.013,0.456 1.013,1.014 L -21.798,0 c 0,4.224 1.374,6.574 7.517,6.582 C -8.137,6.574 -6.763,4.224 -6.763,0 l -0.005,-16.351 c 0.011,-2.12 1.446,-3.902 3.383,-4.484 0.855,-0.256 2.373,-0.189 2.373,-0.189 0.556,0 1.012,0.456 1.012,1.014 z"
           style="fill:#000e6e;fill-opacity:1;fill-rule:nonzero;stroke:none"
           id="path56"
           inkscape:connector-curvature="0" />
      </g>
      <g
         id="g58"
         transform="translate(752.0937,91.599)">
        <path
           d="m 0,0 c 0,-5.129 2.549,-7.168 6.641,-8.942 l 7.246,-3.157 c 3.286,-1.447 4.293,-2.236 4.293,-3.946 0,-2.17 -1.811,-2.827 -6.238,-2.827 -0.26,0 -1.971,0.044 -1.971,0.044 -5.01,0.193 -9.126,1.774 -9.126,1.774 -0.088,0.027 -0.566,0.159 -0.882,-0.097 -1.154,-1.114 0.51,-6.656 3.14,-7.232 0,0 1.694,-0.305 2.931,-0.425 0.031,-0.004 4.788,-0.311 5.303,-0.311 9.527,0 13.552,2.892 13.552,9.206 0,5.26 -2.684,7.43 -7.179,9.272 L 9.929,-3.354 C 7.648,-2.367 6.775,-1.578 6.775,0 c 0,1.908 1.409,2.696 5.904,2.696 2.775,0 5.279,-0.341 6.988,-0.823 0.494,-0.14 2.381,-0.922 3.022,-0.5 1.186,0.992 -0.313,6.226 -2.923,6.87 V 8.244 C 19.115,8.397 15.99,8.951 12.814,8.944 3.824,8.944 0,6.05 0,0"
           style="fill:#000e6e;fill-opacity:1;fill-rule:nonzero;stroke:none"
           id="path60"
           inkscape:connector-curvature="0" />
      </g>
      <g
         id="g62"
         transform="translate(896.9907,91.599)">
        <path
           d="m 0,0 c 0,-5.129 2.549,-7.168 6.641,-8.942 l 7.246,-3.157 c 3.286,-1.447 4.293,-2.236 4.293,-3.946 0,-2.17 -1.811,-2.827 -6.238,-2.827 -0.26,0 -1.971,0.044 -1.971,0.044 -5.01,0.193 -9.126,1.774 -9.126,1.774 -0.088,0.027 -0.565,0.159 -0.882,-0.097 -1.154,-1.114 0.51,-6.656 3.14,-7.232 0,0 1.694,-0.305 2.931,-0.425 0.031,-0.004 4.788,-0.311 5.303,-0.311 9.527,0 13.552,2.892 13.552,9.206 0,5.26 -2.684,7.43 -7.179,9.272 L 9.929,-3.354 C 7.648,-2.367 6.775,-1.578 6.775,0 c 0,1.908 1.409,2.696 5.904,2.696 2.775,0 5.279,-0.341 6.988,-0.823 0.494,-0.14 2.381,-0.922 3.022,-0.5 1.186,0.992 -0.313,6.226 -2.923,6.87 V 8.244 C 19.115,8.397 15.99,8.951 12.814,8.944 3.824,8.944 0,6.05 0,0"
           style="fill:#000e6e;fill-opacity:1;fill-rule:nonzero;stroke:none"
           id="path64"
           inkscape:connector-curvature="0" />
      </g>
      <g
         id="g66"
         transform="translate(805.5209,86.3391)">
        <path
           d="m 0,0 c 0,5.524 -1.878,7.891 -8.386,7.891 -6.508,0 -8.52,-2.367 -8.52,-7.891 v -5.656 c 0,-5.457 1.879,-7.825 8.52,-7.825 6.508,0 8.386,2.302 8.386,7.825 z M -23.816,-5.656 V 0 c 0,9.206 5.031,14.204 15.43,14.204 C 2.281,14.204 6.909,9.469 6.909,0 v -5.656 c 0,-9.14 -5.031,-14.203 -15.295,-14.203 -10.734,0 -15.43,4.734 -15.43,14.203"
           style="fill:#000e6e;fill-opacity:1;fill-rule:nonzero;stroke:none"
           id="path68"
           inkscape:connector-curvature="0" />
      </g>
      <g
         id="g70"
         transform="translate(839.1409,73.5844)">
        <path
           d="m 0,0 c -0.902,-0.258 -3.193,-0.767 -5.888,-0.865 -6.344,0.05 -8.314,2.432 -8.314,7.911 v 5.669 c 0,5.48 1.97,7.861 8.314,7.911 2.695,-0.097 4.986,-0.607 5.888,-0.865 0.815,-0.233 1.37,-0.27 1.752,-0.078 1.153,1.017 -0.517,6.156 -3.147,6.715 -10e-4,0 -10e-4,0 -10e-4,0.001 -2.592,0.626 -4.286,0.557 -4.286,0.557 -10.399,0 -15.431,-5.011 -15.431,-14.241 v -5.67 c 0.001,-9.229 5.033,-14.24 15.431,-14.24 0,0 1.694,-0.068 4.286,0.558 v 0 C 1.235,-6.078 2.905,-0.939 1.752,0.079 1.37,0.27 0.815,0.233 0,0"
           style="fill:#000e6e;fill-opacity:1;fill-rule:nonzero;stroke:none"
           id="path72"
           inkscape:connector-curvature="0" />
      </g>
      <g
         id="g74"
         transform="translate(868.7982,86.4981)">
        <path
           d="M 0,0 H 15.699 V 1.649 C 15.699,6 13.083,8.176 7.783,8.176 2.616,8.176 0,6 0,1.649 Z m 13.125,-19.96 c -1.14,-0.102 -2.315,-0.151 -3.531,-0.151 -11.271,0 -16.505,4.154 -16.505,14.111 v 5.736 c 0,9.561 4.965,14.309 14.895,14.309 9.326,0 14.223,-4.682 14.223,-13.649 0,-0.989 -0.067,-1.912 -0.134,-2.901 -0.268,-2.44 -0.939,-3.034 -3.422,-3.034 H 0 v -1.45 c 0,-4.814 2.818,-6.726 9.594,-6.726 1.085,0 2.191,0.051 3.322,0.158 0,0 3.444,0.255 5.889,0.873 0.815,0.233 1.37,0.27 1.752,0.079 1.152,-1.018 -0.517,-6.157 -3.147,-6.715 -0.001,0 -0.001,-0.001 -0.001,-0.001 -2.592,-0.626 -4.284,-0.639 -4.284,-0.639"
           style="fill:#000e6e;fill-opacity:1;fill-rule:nonzero;stroke:none"
           id="path76"
           inkscape:connector-curvature="0" />
      </g>
      <g
         id="g78"
         transform="translate(947.894,73.5793)">
        <path
           d="m 0,0 c -0.902,-0.258 -3.193,-0.767 -5.888,-0.864 -6.344,0.05 -8.314,2.43 -8.314,7.905 v 5.665 c 0,5.476 1.97,7.856 8.314,7.905 2.695,-0.097 4.986,-0.605 5.888,-0.864 0.815,-0.233 1.37,-0.27 1.752,-0.078 1.153,1.017 -0.517,6.152 -3.147,6.71 -10e-4,0 -10e-4,10e-4 -10e-4,10e-4 -2.592,0.625 -4.286,0.557 -4.286,0.557 -10.399,0 -15.431,-5.007 -15.431,-14.231 V 7.04 c 0.001,-9.223 5.033,-14.23 15.431,-14.23 0,0 1.694,-0.068 4.286,0.557 0,0.001 0,0.001 10e-4,0.001 2.63,0.558 4.3,5.694 3.147,6.711 C 1.37,0.27 0.815,0.233 0,0"
           style="fill:#000e6e;fill-opacity:1;fill-rule:nonzero;stroke:none"
           id="path80"
           inkscape:connector-curvature="0" />
      </g>
      <g
         id="g82"
         transform="translate(961.7343,82.9731)">
        <path
           d="M 0,0 H -3.349 C -3.913,0 -4.277,0.595 -4.021,1.097 L 4.352,17.52 -4.007,33.595 c -0.261,0.502 0.104,1.102 0.669,1.102 h 3.339 c 3.091,0 5.152,-1.259 6.527,-3.664 L 14.429,17.52 6.642,4.008 C 5.153,1.489 3.206,0 0,0"
           style="fill:#ff357b;fill-opacity:1;fill-rule:nonzero;stroke:none"
           id="path84"
           inkscape:connector-curvature="0" />
      </g>
    </g>
  </g>
</svg>
